<?xml version="1.0" encoding="UTF-8"?>
<!DOCTYPE svg PUBLIC "-//W3C//DTD SVG 1.1//EN" "http://www.w3.org/Graphics/SVG/1.1/DTD/svg11.dtd">
<svg xmlns="http://www.w3.org/2000/svg" version="1.1" width="806px" height="594px" style="shape-rendering:geometricPrecision; text-rendering:geometricPrecision; image-rendering:optimizeQuality; fill-rule:evenodd; clip-rule:evenodd" xmlns:xlink="http://www.w3.org/1999/xlink">
<g><path style="opacity:0.991" fill="#000000" d="M 393.5,9.5 C 401.583,8.52079 408.917,10.3541 415.5,15C 467.667,67.1667 519.833,119.333 572,171.5C 579.333,182.167 579.333,192.833 572,203.5C 519.5,256 467,308.5 414.5,361C 403.628,367.266 392.962,366.933 382.5,360C 330.333,307.833 278.167,255.667 226,203.5C 218.627,192.325 218.96,181.325 227,170.5C 278.5,119 330,67.5 381.5,16C 385.147,13.0127 389.147,10.8461 393.5,9.5 Z"/></g>
<g><path style="opacity:0.991" fill="#000000" d="M 610.5,220.5 C 618.964,219.233 626.631,221.066 633.5,226C 685.667,278.167 737.833,330.333 790,382.5C 797.447,393.722 797.114,404.722 789,415.5C 737.5,467 686,518.5 634.5,570C 623.421,578.248 612.088,578.582 600.5,571C 548.333,518.833 496.167,466.667 444,414.5C 436.667,403.833 436.667,393.167 444,382.5C 496.5,330 549,277.5 601.5,225C 604.592,223.454 607.592,221.954 610.5,220.5 Z"/></g>
<g><path style="opacity:0.994" fill="#000000" d="M 182.5,226.5 C 189.676,225.794 196.343,227.294 202.5,231C 255.333,283.833 308.167,336.667 361,389.5C 367.226,400.344 366.893,411.01 360,421.5C 308.167,473.333 256.333,525.167 204.5,577C 194.57,583.495 184.237,584.161 173.5,579C 120.333,525.833 67.1667,472.667 14,419.5C 8.05166,409.553 8.05166,399.553 14,389.5C 66.8333,336.667 119.667,283.833 172.5,231C 175.815,229.17 179.149,227.67 182.5,226.5 Z"/></g>
</svg>
